# xmcd
#
# Track frame offsets: 
#        183
#        15793
#        29835
#        44738
#        60870
#        74233
#        88205
#        103723
#        117765
#        131140
#        146905
#        161088
#        175278
#        189738
#        204645
#        220823
#        236668
#        251393
#        267113
#        279848
#        292268
#        308073
#        321635
#
# Disc length: 4461 seconds
#
# Revision: 1
# Processed by: cddbd v1.5.2PL0 Copyright (c) Steve Scherf et al.
# Submitted via: ExactAudioCopyFreeDBPlugin 1.0
#
DISCID=6e116b17
DTITLE=Bessie Smith - 1923
DYEAR=1994
DGENRE=Blues
TTITLE0=Downhearted Blues
TTITLE1=Gulf Coast Blues
TTITLE2=Aggravatin' Papa
TTITLE3=Beale Street Mama
TTITLE4=Baby Won't You Please Come Home
TTITLE5=Oh Daddy, You Won't Have No Mama at All
TTITLE6=Tain't Nobody's Bizness If I Do
TTITLE7=Keeps on A-Rainin' (Papa, He Can't Make No Time)
TTITLE8=Mama's Got the Blues
TTITLE9=Outside of That
TTITLE10=Bleeding Hearted Blues
TTITLE11=Lady Luck Blues
TTITLE12=Yodling Blues
TTITLE13=Midnight Blues
TTITLE14=If You don't know I don't know who will
TTITLE15=Nobody in Town Can Bake a Sweet Jelly Roll Like Mine
TTITLE16=Jailhouse Blues
TTITLE17=St. Louis Gal
TTITLE18=Sam Jones Blues
TTITLE19=Graveyard Dream Blues
TTITLE20=Cemetery Blues
TTITLE21=Far Away Blues
TTITLE22=I'm Going Back to My Used to Be
EXTD=
EXTT0=
EXTT1=
EXTT2=
EXTT3=
EXTT4=
EXTT5=
EXTT6=
EXTT7=
EXTT8=
EXTT9=
EXTT10=
EXTT11=
EXTT12=
EXTT13=
EXTT14=
EXTT15=
EXTT16=
EXTT17=
EXTT18=
EXTT19=
EXTT20=
EXTT21=
EXTT22=
PLAYORDER=
